<?xml version="1.0" encoding="UTF-8"?>
<svg version="1.1" xmlns="http://www.w3.org/2000/svg" xmlns:xlink="http://www.w3.org/1999/xlink">
<defs>
<clipPath id="clip0_14753_10662"><path fill="#fff" d="M0 0h24v24H0z"/></clipPath>
</defs>
<symbol id="i-eyecross" viewBox="0 0 24 24" fill="none" xmlns="http://www.w3.org/2000/svg"><g clip-path="url(#clip0_14753_10662)" stroke="currentColor" stroke-width="2" stroke-linecap="round" stroke-linejoin="round"><path d="M14.12 14.12a2.998 2.998 0 01-5.194-2.098A3 3 0 019.88 9.88m8.06 8.06A10.07 10.07 0 0112 20c-7 0-11-8-11-8a18.45 18.45 0 015.06-5.94l11.88 11.88zM9.9 4.24A9.12 9.12 0 0112 4c7 0 11 8 11 8a18.494 18.494 0 01-2.16 3.19L9.9 4.24zM1 1l22 22"/></g></symbol>
<symbol id="i-eyeopen" viewBox="0 0 24 24" fill="none" xmlns="http://www.w3.org/2000/svg"><path d="M1 12s4-8 11-8 11 8 11 8-4 8-11 8-11-8-11-8z" stroke="currentColor" stroke-width="2" stroke-linecap="round" stroke-linejoin="round"/><path d="M12 15a3 3 0 100-6 3 3 0 000 6z" stroke="currentColor" stroke-width="2" stroke-linecap="round" stroke-linejoin="round"/></symbol>
<symbol id="i-favorite" viewBox="0 0 24 22" fill="currentColor" xmlns="http://www.w3.org/2000/svg"><path d="M20.84 3.61a5.5 5.5 0 00-7.78 0L12 4.67l-1.06-1.06a5.501 5.501 0 10-7.78 7.78l1.06 1.06L12 20.23l7.78-7.78 1.06-1.06a5.499 5.499 0 000-7.78v0z" stroke="#1390E5" stroke-width="2" stroke-linecap="round" stroke-linejoin="round"/></symbol>
<symbol id="i-sib-logo" viewBox="0 0 88 88" fill="none" xmlns="http://www.w3.org/2000/svg"><path fill-rule="evenodd" clip-rule="evenodd" d="M59.149 43.567L24.683 60.956v18.443l34.466-17.39V43.568z" fill="#1390E5"/><path fill-rule="evenodd" clip-rule="evenodd" d="M24.683 26.179L59.15 43.568V62.01l-34.466-17.39V26.18z" fill="#1180CB"/><path fill-rule="evenodd" clip-rule="evenodd" d="M59.149 8.79L24.683 26.18v18.443l34.466-17.39V8.792z" fill="#35A2EC"/></symbol>
<symbol id="i-switchergrid" viewBox="0 0 24 24" fill="none" xmlns="http://www.w3.org/2000/svg"><g stroke="currentColor" stroke-width="2" stroke-linecap="round" stroke-linejoin="round"><path d="M10 5H5v5h5V5zM19 5h-5v5h5V5zM19 14h-5v5h5v-5zM10 14H5v5h5v-5z"/></g></symbol>
<symbol id="i-switcherlist" viewBox="0 0 24 24" fill="none" xmlns="http://www.w3.org/2000/svg"><g stroke="currentColor" stroke-width="2" stroke-linecap="round" stroke-linejoin="round"><path d="M8 6h13M8 12h13M8 18h13M3 6h.01M3 12h.01M3 18h.01"/></g></symbol>
</svg>